<svg class="wp-block-acf-welcome__mountain-scape" width="2340" height="1230" viewBox="0 0 2340 1230" fill="none" xmlns="http://www.w3.org/2000/svg">
<g clip-path="url(#clip0_1_112)">
<rect width="2340" height="1230" fill="white"/>
<path d="M2340 0H0V1560H2340V0Z" fill="url(#paint0_linear_1_112)"/>
<path class="sun-outer" opacity="0.3" d="M1170 1329.51C1473.49 1329.51 1719.51 1083.49 1719.51 780C1719.51 476.514 1473.49 230.49 1170 230.49C866.514 230.49 620.49 476.514 620.49 780C620.49 1083.49 866.514 1329.51 1170 1329.51Z" fill="#FEF5E0"/>
<path class="sun-center" opacity="0.5" d="M1170 1230.33C1418.71 1230.33 1620.33 1028.71 1620.33 780C1620.33 531.29 1418.71 329.67 1170 329.67C921.29 329.67 719.67 531.29 719.67 780C719.67 1028.71 921.29 1230.33 1170 1230.33Z" fill="#FEF5E0"/>
<path class="sun-inner" d="M1170 1110.76C1352.67 1110.76 1500.76 962.674 1500.76 780C1500.76 597.326 1352.67 449.24 1170 449.24C987.326 449.24 839.24 597.326 839.24 780C839.24 962.674 987.326 1110.76 1170 1110.76Z" fill="#FEF5E0"/>
<path d="M0 753.77L594.99 536.15C633.45 522.08 675.99 524.3 712.78 542.29L1118.72 740.79C1151.76 756.95 1189.58 760.44 1225.02 750.62L1572.72 654.22C1605.9 645.02 1641.23 647.48 1672.82 661.19C1719.25 681.34 1772.7 676.79 1815.07 649.09L1914.4 584.14C1961.36 553.44 2021.49 551.41 2070.41 578.87L2340.01 730.22V1559.99H0V753.76V753.77Z" fill="url(#paint1_linear_1_112)"/>
<path d="M0 759.85C73.49 801.02 163.93 803.62 239.89 766.75L360.15 708.38C479.35 650.52 624.54 677.08 712.8 772.89C749.24 812.44 805.97 829.02 859.41 815.74C885.96 809.14 914.22 814.75 935.79 830.91L1170.83 1006.98C1187.74 1019.65 1211.13 1020.99 1229.52 1010.34C1247.08 1000.17 1269.29 1000.9 1286.08 1012.19L1318.56 1034.04C1334.09 1044.49 1354.38 1045.95 1371.39 1037.86L1722.8 870.48C1776.46 844.92 1838.65 840.98 1895.39 859.55C1933.5 872.02 1974.82 872.37 2013.16 860.56L2340.01 759.85V1560H0V759.85Z" fill="url(#paint2_linear_1_112)"/>
<path d="M2340 1136.19V1560H0V1164.17L253.72 1114.22C281.67 1108.72 309.74 1103.96 337.89 1099.96L351.96 1060.56L367.7 1016.5C370.66 1008.21 382.38 1008.21 385.34 1016.5L401.08 1060.56L412.01 1091.16L415.43 1090.83L430.99 1047.25C433.96 1038.96 445.68 1038.96 448.64 1047.25L462.88 1087.12C587.75 1079.2 713.36 1085.84 837.15 1107.07C862.51 1111.42 887.94 1115.24 913.42 1118.51L914.74 1114.81L930.48 1070.75C933.44 1062.46 945.16 1062.46 948.12 1070.75L956 1092.8L963.86 1070.79L979.6 1026.72C982.56 1018.43 994.28 1018.43 997.24 1026.72L1012.98 1070.79L1034.13 1130.01C1034.85 1130.06 1035.56 1130.1 1036.28 1130.14L1046.74 1103.79L1059.72 1071.11C1062.17 1064.96 1071.83 1064.96 1074.28 1071.11L1087.26 1103.79L1098.81 1132.88C1115.2 1133.32 1131.59 1133.54 1147.98 1133.54C1242.33 1133.54 1336.67 1126.27 1430.14 1111.74L1443.9 1073.21C1446.86 1064.92 1458.58 1064.92 1461.54 1073.21L1469.42 1095.27L1477.28 1073.25L1493.02 1029.19C1495.98 1020.9 1507.7 1020.9 1510.66 1029.19L1526.4 1073.25L1533.48 1093.08C1540.7 1091.75 1547.93 1090.47 1555.16 1089.23L1566.14 1061.57C1568.58 1055.43 1578.25 1055.43 1580.7 1061.57L1589.49 1083.74C1615.09 1079.88 1640.75 1076.62 1666.45 1073.94L1666.96 1072.51L1682.69 1028.45C1685.66 1020.16 1697.38 1020.16 1700.34 1028.45L1712.98 1063.82L1711.31 1069.83C1712.54 1069.73 1713.78 1069.64 1715.02 1069.55L1712.98 1063.82L1716.08 1052.61L1731.81 995.8C1734.77 985.11 1746.5 985.11 1749.46 995.8L1765.19 1052.61L1768.98 1066.28C1772.49 1066.12 1775.99 1065.97 1779.49 1065.84L1792.85 1028.45C1795.81 1020.16 1807.53 1020.16 1810.49 1028.45L1823.44 1064.69C1997.66 1062.34 2171.83 1086.27 2340 1136.19Z" fill="url(#paint3_linear_1_112)"/>
<path d="M1715.02 1069.55C1713.78 1069.64 1712.54 1069.73 1711.31 1069.83L1712.98 1063.82L1715.02 1069.55Z" fill="url(#paint4_linear_1_112)"/>
<path d="M1715.02 1069.55C1713.78 1069.64 1712.54 1069.73 1711.31 1069.83L1712.98 1063.82L1715.02 1069.55Z" fill="url(#paint5_linear_1_112)"/>
<g class="twinkle" opacity="0.8">
<path d="M531.68 122.26L534.01 53.17L535.41 121.79L534.95 198.81L531.68 122.26Z" fill="white"/>
<path d="M534.02 120.86L603.11 123.19L534.48 124.59L457.46 124.13L534.02 120.86Z" fill="white"/>
<path d="M532.35 121.3L570.89 88.43L534.45 123.09L492.53 160.9L532.35 121.3Z" fill="white"/>
<path d="M534.26 121.88L567.13 160.42L532.47 123.98L494.67 82.06L534.26 121.88Z" fill="white"/>
<path d="M539.13 122.74C539.13 125.92 536.55 128.5 533.37 128.5C530.19 128.5 527.61 125.92 527.61 122.74C527.61 119.56 530.19 116.98 533.37 116.98C536.55 116.98 539.13 119.56 539.13 122.74Z" fill="white"/>
</g>
<g opacity="0.5">
<path d="M105.52 60.03C107.111 60.03 108.4 58.7406 108.4 57.15C108.4 55.5594 107.111 54.27 105.52 54.27C103.929 54.27 102.64 55.5594 102.64 57.15C102.64 58.7406 103.929 60.03 105.52 60.03Z" fill="white"/>
<path d="M122.22 263.81C122.22 266.99 119.64 269.57 116.46 269.57C113.28 269.57 110.7 266.99 110.7 263.81C110.7 260.63 113.28 258.05 116.46 258.05C119.64 258.05 122.22 260.63 122.22 263.81Z" fill="white"/>
<path d="M396.75 138.08C396.75 139.67 395.46 140.96 393.87 140.96C392.28 140.96 390.99 139.67 390.99 138.08C390.99 136.49 392.28 135.2 393.87 135.2C395.46 135.2 396.75 136.49 396.75 138.08Z" fill="white"/>
<path d="M484.28 329.85C484.28 331.44 482.99 332.73 481.4 332.73C479.81 332.73 478.52 331.44 478.52 329.85C478.52 328.26 479.81 326.97 481.4 326.97C482.99 326.97 484.28 328.26 484.28 329.85Z" fill="white"/>
<path d="M277.1 314.28C277.1 315.87 275.81 317.16 274.22 317.16C272.63 317.16 271.34 315.87 271.34 314.28C271.34 312.69 272.63 311.4 274.22 311.4C275.81 311.4 277.1 312.69 277.1 314.28Z" fill="white"/>
<path d="M313.83 412.63C313.83 414.22 312.54 415.51 310.95 415.51C309.36 415.51 308.07 414.22 308.07 412.63C308.07 411.04 309.36 409.75 310.95 409.75C312.54 409.75 313.83 411.04 313.83 412.63Z" fill="white"/>
<path d="M333.08 349.8C333.964 349.8 334.68 349.084 334.68 348.2C334.68 347.316 333.964 346.6 333.08 346.6C332.196 346.6 331.48 347.316 331.48 348.2C331.48 349.084 332.196 349.8 333.08 349.8Z" fill="white"/>
<path d="M420.8 296.69C421.684 296.69 422.4 295.974 422.4 295.09C422.4 294.206 421.684 293.49 420.8 293.49C419.916 293.49 419.2 294.206 419.2 295.09C419.2 295.974 419.916 296.69 420.8 296.69Z" fill="white"/>
<path d="M586.98 172.78C587.864 172.78 588.58 172.064 588.58 171.18C588.58 170.296 587.864 169.58 586.98 169.58C586.096 169.58 585.38 170.296 585.38 171.18C585.38 172.064 586.096 172.78 586.98 172.78Z" fill="white"/>
<path d="M384.53 332.28C385.414 332.28 386.13 331.564 386.13 330.68C386.13 329.796 385.414 329.08 384.53 329.08C383.646 329.08 382.93 329.796 382.93 330.68C382.93 331.564 383.646 332.28 384.53 332.28Z" fill="white"/>
<path d="M411.67 400.29C412.554 400.29 413.27 399.574 413.27 398.69C413.27 397.806 412.554 397.09 411.67 397.09C410.786 397.09 410.07 397.806 410.07 398.69C410.07 399.574 410.786 400.29 411.67 400.29Z" fill="white"/>
<path d="M517.26 399.89C518.144 399.89 518.86 399.174 518.86 398.29C518.86 397.406 518.144 396.69 517.26 396.69C516.376 396.69 515.66 397.406 515.66 398.29C515.66 399.174 516.376 399.89 517.26 399.89Z" fill="white"/>
<path d="M740.39 322.2C741.274 322.2 741.99 321.484 741.99 320.6C741.99 319.716 741.274 319 740.39 319C739.506 319 738.79 319.716 738.79 320.6C738.79 321.484 739.506 322.2 740.39 322.2Z" fill="white"/>
<path d="M364.62 359.81C365.504 359.81 366.22 359.094 366.22 358.21C366.22 357.326 365.504 356.61 364.62 356.61C363.736 356.61 363.02 357.326 363.02 358.21C363.02 359.094 363.736 359.81 364.62 359.81Z" fill="white"/>
<path d="M366.87 311.97C367.73 312.14 368.3 312.98 368.12 313.85C367.95 314.71 367.11 315.28 366.24 315.1C365.38 314.93 364.81 314.09 364.99 313.22C365.16 312.36 366 311.79 366.87 311.97Z" fill="white"/>
<path d="M269.06 178.91C269.944 178.91 270.66 178.194 270.66 177.31C270.66 176.426 269.944 175.71 269.06 175.71C268.176 175.71 267.46 176.426 267.46 177.31C267.46 178.194 268.176 178.91 269.06 178.91Z" fill="white"/>
<path d="M371.43 217C372.314 217 373.03 216.284 373.03 215.4C373.03 214.516 372.314 213.8 371.43 213.8C370.546 213.8 369.83 214.516 369.83 215.4C369.83 216.284 370.546 217 371.43 217Z" fill="white"/>
<path d="M156.66 208.64C157.544 208.64 158.26 207.924 158.26 207.04C158.26 206.156 157.544 205.44 156.66 205.44C155.776 205.44 155.06 206.156 155.06 207.04C155.06 207.924 155.776 208.64 156.66 208.64Z" fill="white"/>
<path d="M199.49 419.41C201.081 419.41 202.37 418.121 202.37 416.53C202.37 414.939 201.081 413.65 199.49 413.65C197.899 413.65 196.61 414.939 196.61 416.53C196.61 418.121 197.899 419.41 199.49 419.41Z" fill="white"/>
<path d="M810.78 139.11C811.664 139.11 812.38 138.394 812.38 137.51C812.38 136.626 811.664 135.91 810.78 135.91C809.896 135.91 809.18 136.626 809.18 137.51C809.18 138.394 809.896 139.11 810.78 139.11Z" fill="white"/>
<path d="M822.83 57.15C822.83 58.74 821.54 60.03 819.95 60.03C818.36 60.03 817.07 58.74 817.07 57.15C817.07 55.56 818.36 54.27 819.95 54.27C821.54 54.27 822.83 55.56 822.83 57.15Z" fill="white"/>
<path d="M1253.56 122.74C1253.56 125.92 1250.98 128.5 1247.8 128.5C1244.62 128.5 1242.04 125.92 1242.04 122.74C1242.04 119.56 1244.62 116.98 1247.8 116.98C1250.98 116.98 1253.56 119.56 1253.56 122.74Z" fill="white"/>
<path d="M717.47 235.32C717.47 236.91 716.18 238.2 714.59 238.2C713 238.2 711.71 236.91 711.71 235.32C711.71 233.73 713 232.44 714.59 232.44C716.18 232.44 717.47 233.73 717.47 235.32Z" fill="white"/>
<path d="M1003.3 83.25C1004.89 83.25 1006.18 81.9606 1006.18 80.37C1006.18 78.7794 1004.89 77.49 1003.3 77.49C1001.71 77.49 1000.42 78.7794 1000.42 80.37C1000.42 81.9606 1001.71 83.25 1003.3 83.25Z" fill="white"/>
<path d="M1378.56 167.71C1380.15 167.71 1381.44 166.421 1381.44 164.83C1381.44 163.239 1380.15 161.95 1378.56 161.95C1376.97 161.95 1375.68 163.239 1375.68 164.83C1375.68 166.421 1376.97 167.71 1378.56 167.71Z" fill="white"/>
<path d="M1301.41 172.78C1302.29 172.78 1303.01 172.064 1303.01 171.18C1303.01 170.296 1302.29 169.58 1301.41 169.58C1300.53 169.58 1299.81 170.296 1299.81 171.18C1299.81 172.064 1300.53 172.78 1301.41 172.78Z" fill="white"/>
<path d="M1272.54 78.7C1273.42 78.7 1274.14 77.9837 1274.14 77.1C1274.14 76.2163 1273.42 75.5 1272.54 75.5C1271.66 75.5 1270.94 76.2163 1270.94 77.1C1270.94 77.9837 1271.66 78.7 1272.54 78.7Z" fill="white"/>
<path d="M1460.14 44.41C1461.02 44.41 1461.74 43.6936 1461.74 42.81C1461.74 41.9263 1461.02 41.21 1460.14 41.21C1459.26 41.21 1458.54 41.9263 1458.54 42.81C1458.54 43.6936 1459.26 44.41 1460.14 44.41Z" fill="white"/>
<path d="M983.48 178.91C984.364 178.91 985.08 178.194 985.08 177.31C985.08 176.426 984.364 175.71 983.48 175.71C982.596 175.71 981.88 176.426 981.88 177.31C981.88 178.194 982.596 178.91 983.48 178.91Z" fill="white"/>
<path d="M1085.86 217C1086.74 217 1087.46 216.284 1087.46 215.4C1087.46 214.516 1086.74 213.8 1085.86 213.8C1084.98 213.8 1084.26 214.516 1084.26 215.4C1084.26 216.284 1084.98 217 1085.86 217Z" fill="white"/>
<path d="M1969.92 58.09C1970.8 58.09 1971.52 57.3737 1971.52 56.49C1971.52 55.6063 1970.8 54.89 1969.92 54.89C1969.04 54.89 1968.32 55.6063 1968.32 56.49C1968.32 57.3737 1969.04 58.09 1969.92 58.09Z" fill="white"/>
<path d="M2048.51 108.59C2049.39 108.59 2050.11 107.874 2050.11 106.99C2050.11 106.106 2049.39 105.39 2048.51 105.39C2047.63 105.39 2046.91 106.106 2046.91 106.99C2046.91 107.874 2047.63 108.59 2048.51 108.59Z" fill="white"/>
<path d="M2003.71 20.27C2004.57 20.44 2005.14 21.28 2004.96 22.15C2004.79 23.01 2003.95 23.58 2003.08 23.4C2002.21 23.23 2001.65 22.39 2001.83 21.52C2002 20.66 2002.84 20.09 2003.71 20.27Z" fill="white"/>
<path d="M871.09 208.64C871.974 208.64 872.69 207.924 872.69 207.04C872.69 206.156 871.974 205.44 871.09 205.44C870.206 205.44 869.49 206.156 869.49 207.04C869.49 207.924 870.206 208.64 871.09 208.64Z" fill="white"/>
<path d="M2013.57 130.02C2013.02 133.15 2010.03 135.25 2006.9 134.7C2003.77 134.15 2001.67 131.16 2002.22 128.03C2002.77 124.9 2005.76 122.8 2008.89 123.35C2012.02 123.9 2014.12 126.89 2013.57 130.02Z" fill="white"/>
<path d="M2210.65 17.6C2212.24 17.6 2213.53 16.3106 2213.53 14.72C2213.53 13.1294 2212.24 11.84 2210.65 11.84C2209.06 11.84 2207.77 13.1294 2207.77 14.72C2207.77 16.3106 2209.06 17.6 2210.65 17.6Z" fill="white"/>
<path d="M2140.08 155.68C2140.08 157.27 2138.79 158.56 2137.2 158.56C2135.61 158.56 2134.32 157.27 2134.32 155.68C2134.32 154.09 2135.61 152.8 2137.2 152.8C2138.79 152.8 2140.08 154.09 2140.08 155.68Z" fill="white"/>
<path d="M2269.51 50.24C2270.39 50.24 2271.11 49.5236 2271.11 48.64C2271.11 47.7563 2270.39 47.04 2269.51 47.04C2268.63 47.04 2267.91 47.7563 2267.91 48.64C2267.91 49.5236 2268.63 50.24 2269.51 50.24Z" fill="white"/>
<path d="M2303.31 12.41C2304.17 12.58 2304.74 13.42 2304.56 14.29C2304.39 15.15 2303.55 15.72 2302.68 15.54C2301.82 15.37 2301.25 14.53 2301.43 13.66C2301.6 12.8 2302.44 12.23 2303.31 12.41Z" fill="white"/>
<path d="M2024.31 341.77C2025.19 341.77 2025.91 341.054 2025.91 340.17C2025.91 339.286 2025.19 338.57 2024.31 338.57C2023.43 338.57 2022.71 339.286 2022.71 340.17C2022.71 341.054 2023.43 341.77 2024.31 341.77Z" fill="white"/>
<path d="M2275.45 333.86C2275.45 335.45 2274.16 336.74 2272.57 336.74C2270.98 336.74 2269.69 335.45 2269.69 333.86C2269.69 332.27 2270.98 330.98 2272.57 330.98C2274.16 330.98 2275.45 332.27 2275.45 333.86Z" fill="white"/>
<path d="M1602.39 55.3C1602.39 56.89 1601.1 58.18 1599.51 58.18C1597.92 58.18 1596.63 56.89 1596.63 55.3C1596.63 53.71 1597.92 52.42 1599.51 52.42C1601.1 52.42 1602.39 53.71 1602.39 55.3Z" fill="white"/>
<path d="M1515.61 239.5C1516.49 239.5 1517.21 238.784 1517.21 237.9C1517.21 237.016 1516.49 236.3 1515.61 236.3C1514.73 236.3 1514.01 237.016 1514.01 237.9C1514.01 238.784 1514.73 239.5 1515.61 239.5Z" fill="white"/>
<path d="M1746.09 37.71C1746.97 37.71 1747.69 36.9937 1747.69 36.11C1747.69 35.2263 1746.97 34.51 1746.09 34.51C1745.21 34.51 1744.49 35.2263 1744.49 36.11C1744.49 36.9937 1745.21 37.71 1746.09 37.71Z" fill="white"/>
<path d="M1689.91 100.83C1690.79 100.83 1691.51 100.114 1691.51 99.23C1691.51 98.3464 1690.79 97.63 1689.91 97.63C1689.03 97.63 1688.31 98.3464 1688.31 99.23C1688.31 100.114 1689.03 100.83 1689.91 100.83Z" fill="white"/>
<path d="M1313.77 47.33C1312.9 47.46 1312.08 46.86 1311.95 45.99C1311.82 45.12 1312.42 44.3 1313.29 44.17C1314.16 44.04 1314.98 44.64 1315.11 45.51C1315.24 46.38 1314.64 47.2 1313.77 47.33Z" fill="white"/>
<path d="M1527.66 157.54C1527.66 159.13 1526.37 160.42 1524.78 160.42C1523.19 160.42 1521.9 159.13 1521.9 157.54C1521.9 155.95 1523.19 154.66 1524.78 154.66C1526.37 154.66 1527.66 155.95 1527.66 157.54Z" fill="white"/>
<path d="M1958.39 223.13C1958.39 226.31 1955.81 228.89 1952.63 228.89C1949.45 228.89 1946.87 226.31 1946.87 223.13C1946.87 219.95 1949.45 217.37 1952.63 217.37C1955.81 217.37 1958.39 219.95 1958.39 223.13Z" fill="white"/>
<path d="M1903.54 56.38C1903.54 57.97 1902.25 59.26 1900.66 59.26C1899.07 59.26 1897.78 57.97 1897.78 56.38C1897.78 54.79 1899.07 53.5 1900.66 53.5C1902.25 53.5 1903.54 54.79 1903.54 56.38Z" fill="white"/>
<path d="M2086.27 265.22C2086.27 266.81 2084.98 268.1 2083.39 268.1C2081.8 268.1 2080.51 266.81 2080.51 265.22C2080.51 263.63 2081.8 262.34 2083.39 262.34C2084.98 262.34 2086.27 263.63 2086.27 265.22Z" fill="white"/>
<path d="M1763.22 190.93C1764.81 190.93 1766.1 189.641 1766.1 188.05C1766.1 186.459 1764.81 185.17 1763.22 185.17C1761.63 185.17 1760.34 186.459 1760.34 188.05C1760.34 189.641 1761.63 190.93 1763.22 190.93Z" fill="white"/>
<path d="M1432.48 88.46C1434.07 88.46 1435.36 87.1706 1435.36 85.58C1435.36 83.9894 1434.07 82.7 1432.48 82.7C1430.89 82.7 1429.6 83.9894 1429.6 85.58C1429.6 87.1706 1430.89 88.46 1432.48 88.46Z" fill="white"/>
<path d="M1840.06 397.08C1840.94 397.08 1841.66 396.364 1841.66 395.48C1841.66 394.596 1840.94 393.88 1840.06 393.88C1839.18 393.88 1838.46 394.596 1838.46 395.48C1838.46 396.364 1839.18 397.08 1840.06 397.08Z" fill="white"/>
<path d="M2006.24 273.17C2007.12 273.17 2007.84 272.454 2007.84 271.57C2007.84 270.686 2007.12 269.97 2006.24 269.97C2005.36 269.97 2004.64 270.686 2004.64 271.57C2004.64 272.454 2005.36 273.17 2006.24 273.17Z" fill="white"/>
<path d="M1944.4 193.51C1945.28 193.51 1946 192.794 1946 191.91C1946 191.026 1945.28 190.31 1944.4 190.31C1943.52 190.31 1942.8 191.026 1942.8 191.91C1942.8 192.794 1943.52 193.51 1944.4 193.51Z" fill="white"/>
<path d="M1669.45 365.49C1669.45 368.67 1666.87 371.25 1663.69 371.25C1660.51 371.25 1657.93 368.67 1657.93 365.49C1657.93 362.31 1660.51 359.73 1663.69 359.73C1666.87 359.73 1669.45 362.31 1669.45 365.49Z" fill="white"/>
<path d="M2164.97 144.8C2165.85 144.8 2166.57 144.084 2166.57 143.2C2166.57 142.316 2165.85 141.6 2164.97 141.6C2164.09 141.6 2163.37 142.316 2163.37 143.2C2163.37 144.084 2164.09 144.8 2164.97 144.8Z" fill="white"/>
<path d="M2159.65 422.59C2160.53 422.59 2161.25 421.874 2161.25 420.99C2161.25 420.106 2160.53 419.39 2159.65 419.39C2158.77 419.39 2158.05 420.106 2158.05 420.99C2158.05 421.874 2158.77 422.59 2159.65 422.59Z" fill="white"/>
<path d="M1786.13 412.37C1786.99 412.54 1787.56 413.38 1787.38 414.25C1787.21 415.11 1786.37 415.68 1785.5 415.5C1784.64 415.33 1784.07 414.49 1784.25 413.62C1784.42 412.76 1785.26 412.19 1786.13 412.37Z" fill="white"/>
<path d="M1688.32 279.3C1689.2 279.3 1689.92 278.584 1689.92 277.7C1689.92 276.816 1689.2 276.1 1688.32 276.1C1687.44 276.1 1686.72 276.816 1686.72 277.7C1686.72 278.584 1687.44 279.3 1688.32 279.3Z" fill="white"/>
<path d="M1792.28 315.79C1792.28 316.67 1791.57 317.39 1790.68 317.39C1789.79 317.39 1789.08 316.68 1789.08 315.79C1789.08 314.9 1789.79 314.19 1790.68 314.19C1791.57 314.19 1792.28 314.9 1792.28 315.79Z" fill="white"/>
<path d="M1575.92 309.03C1576.8 309.03 1577.52 308.314 1577.52 307.43C1577.52 306.546 1576.8 305.83 1575.92 305.83C1575.04 305.83 1574.32 306.546 1574.32 307.43C1574.32 308.314 1575.04 309.03 1575.92 309.03Z" fill="white"/>
<path d="M1600.99 14.65C1601.87 14.65 1602.59 13.9337 1602.59 13.05C1602.59 12.1663 1601.87 11.45 1600.99 11.45C1600.11 11.45 1599.39 12.1663 1599.39 13.05C1599.39 13.9337 1600.11 14.65 1600.99 14.65Z" fill="white"/>
<path d="M2306.95 418.07C2307.83 418.07 2308.55 417.354 2308.55 416.47C2308.55 415.586 2307.83 414.87 2306.95 414.87C2306.07 414.87 2305.35 415.586 2305.35 416.47C2305.35 417.354 2306.07 418.07 2306.95 418.07Z" fill="white"/>
</g>
<path class="cloud-1" d="M462.47 253.07C462.47 255.43 462.27 257.74 461.9 260H0V231.97C2.46 232.88 4.79 234.07 6.94 235.51C12.19 238.65 17.41 237 19.08 231.7C25.43 211.69 44.14 197.2 66.24 197.2C69.62 197.2 72.91 197.54 76.1 198.18C87.7 200.03 93.66 194.78 95.33 186.76C104.2 146.35 140.2 116.1 183.27 116.1C222.99 116.1 256.7 141.82 268.66 177.51C272.03 186.98 282.31 187.33 288.24 183.14C298.35 176.02 310.68 171.84 323.98 171.84C349.98 171.84 372.24 187.8 381.52 210.46C385.16 218.8 393.96 217.75 399.22 214.96C405.23 211.77 412.09 209.97 419.36 209.97C443.17 209.97 462.47 229.27 462.47 253.07Z" fill="url(#paint6_linear_1_112)"/>
<path class="cloud-3" d="M1791.44 201.28C1793.05 178.82 1809.67 161.15 1829.95 161.15C1832.06 161.15 1834.12 161.34 1836.14 161.71C1844.86 163.21 1851.93 159.96 1855.04 150.82C1864.19 123.7 1887.39 104.43 1914.58 104.43C1931.61 104.43 1947.07 111.99 1958.5 124.31C1963.3 129.21 1969.79 129.04 1973.33 122.32C1985.97 93.52 2012.23 73.72 2042.58 73.72C2076.96 73.72 2106.1 99.11 2116.14 134.22C2117.42 138.68 2122.2 144.12 2130.32 140.65C2136.15 137.92 2142.54 136.41 2149.24 136.41C2165.27 136.41 2179.52 145.02 2188.58 158.38C2192.16 162.93 2196.87 163.26 2201.19 158.56C2210.03 146.91 2223.14 139.53 2237.78 139.53C2259.78 139.53 2278.33 156.2 2284.11 178.98C2285.81 184.12 2290.26 184.13 2292.94 182.18C2297.89 178.59 2303.77 176.5 2310.09 176.5C2324.2 176.5 2336.12 186.9 2340.3 201.28H1791.45H1791.44Z" fill="url(#paint7_linear_1_112)"/>
<path class="cloud-4" d="M2307.29 463.72C2300.52 463.72 2287.58 464.78 2280.27 453.39C2266.81 434.73 2244.91 422.58 2220.14 422.58C2198.35 422.58 2178.79 432 2165.24 446.97C2160.26 452.47 2147.87 458.03 2135.64 452.58C2129.67 449.93 2123.05 448.45 2116.09 448.45C2097.63 448.45 2081.62 458.81 2073.5 474.02C2071.15 478.41 2064.27 482.82 2055.33 479.95C2050.86 478.23 2046 477.28 2040.91 477.28C2026.2 477.28 2013.35 485.14 2006.24 496.87H2340.32C2340.32 496.87 2340.32 496.81 2340.32 496.77C2340.32 478.52 2325.52 463.72 2307.27 463.72H2307.29Z" fill="url(#paint8_linear_1_112)"/>
<path class="cloud-2" d="M763.1 447.25C761.22 447.25 759.37 447.38 757.56 447.64C752.5 448.58 747.69 445.51 747.03 439.49C744.49 407.46 717.7 382.26 685.02 382.26C658.42 382.26 635.73 398.96 626.84 422.44C624.75 428.65 618.58 431.08 611.92 428.01C603.11 423.21 593.01 420.49 582.26 420.49C554.83 420.49 531.56 438.26 523.28 462.9H794.64C787.4 453.39 775.97 447.25 763.1 447.25Z" fill="url(#paint9_linear_1_112)"/>
</g>
<defs>
<linearGradient id="paint0_linear_1_112" x1="1170" y1="1560" x2="1170" y2="0" gradientUnits="userSpaceOnUse">
<stop offset="0.56" stop-color="#DABBCC"/>
<stop offset="1" stop-color="#554181"/>
</linearGradient>
<linearGradient id="paint1_linear_1_112" x1="1170" y1="1560" x2="1170" y2="527" gradientUnits="userSpaceOnUse">
<stop offset="0.39" stop-color="#422E5B"/>
<stop offset="0.64" stop-color="#442F5B"/>
<stop offset="0.75" stop-color="#4B335E"/>
<stop offset="0.83" stop-color="#573B63"/>
<stop offset="0.9" stop-color="#694669"/>
<stop offset="0.96" stop-color="#805572"/>
</linearGradient>
<linearGradient id="paint2_linear_1_112" x1="1170" y1="1560" x2="1170" y2="678.01" gradientUnits="userSpaceOnUse">
<stop offset="0.18" stop-color="#422E5B"/>
<stop offset="0.48" stop-color="#442F5C"/>
<stop offset="0.64" stop-color="#4C3562"/>
<stop offset="0.77" stop-color="#593E6C"/>
<stop offset="0.88" stop-color="#6C4B79"/>
</linearGradient>
<linearGradient id="paint3_linear_1_112" x1="1170" y1="1560" x2="1170" y2="987.78" gradientUnits="userSpaceOnUse">
<stop offset="0.4" stop-color="#422E5B"/>
<stop offset="0.61" stop-color="#45305D"/>
<stop offset="0.77" stop-color="#4E3663"/>
<stop offset="0.92" stop-color="#5E416F"/>
<stop offset="1" stop-color="#6C4B79"/>
</linearGradient>
<linearGradient id="paint4_linear_1_112" x1="1713.17" y1="1069.83" x2="1713.17" y2="1063.82" gradientUnits="userSpaceOnUse">
<stop offset="0.4" stop-color="#422E5B"/>
<stop offset="0.61" stop-color="#45305D"/>
<stop offset="0.77" stop-color="#4E3663"/>
<stop offset="0.92" stop-color="#5E416F"/>
<stop offset="1" stop-color="#6C4B79"/>
</linearGradient>
<linearGradient id="paint5_linear_1_112" x1="1713.17" y1="1069.83" x2="1713.17" y2="1063.82" gradientUnits="userSpaceOnUse">
<stop offset="0.4" stop-color="#422E5B"/>
<stop offset="0.61" stop-color="#45305D"/>
<stop offset="0.77" stop-color="#4E3663"/>
<stop offset="0.92" stop-color="#5E416F"/>
<stop offset="1" stop-color="#6C4B79"/>
</linearGradient>
<linearGradient id="paint6_linear_1_112" x1="231.23" y1="116.1" x2="231.23" y2="260" gradientUnits="userSpaceOnUse">
<stop stop-color="#FEF5E0"/>
<stop offset="1" stop-color="#DBCCCE"/>
</linearGradient>
<linearGradient id="paint7_linear_1_112" x1="2065.87" y1="73.73" x2="2065.87" y2="201.28" gradientUnits="userSpaceOnUse">
<stop stop-color="#FEF5E0"/>
<stop offset="1" stop-color="#DBCCCE"/>
</linearGradient>
<linearGradient id="paint8_linear_1_112" x1="2173.29" y1="422.59" x2="2173.29" y2="496.87" gradientUnits="userSpaceOnUse">
<stop stop-color="#FEF5E0"/>
<stop offset="1" stop-color="#DBCCCE"/>
</linearGradient>
<linearGradient id="paint9_linear_1_112" x1="658.96" y1="382.26" x2="658.96" y2="462.91" gradientUnits="userSpaceOnUse">
<stop stop-color="#FEF5E0"/>
<stop offset="1" stop-color="#DBCCCE"/>
</linearGradient>
<clipPath id="clip0_1_112">
<rect width="2340" height="1230" fill="white"/>
</clipPath>
</defs>
</svg>
